<?xml version="1.0" standalone="no"?><!DOCTYPE svg PUBLIC "-//W3C//DTD SVG 1.1//EN" "http://www.w3.org/Graphics/SVG/1.1/DTD/svg11.dtd"><svg t="1607342599749" class="icon" viewBox="0 0 1024 1024" version="1.1" xmlns="http://www.w3.org/2000/svg" p-id="1583" xmlns:xlink="http://www.w3.org/1999/xlink" width="64" height="64"><defs><style type="text/css"></style></defs><path d="M904.992 72.992l-320 320L544 352v-0.992l-0.992-0.992c-20.48-18.24-47.264-27.008-73.024-27.008-25.728 0-50.624 9.6-69.984 28.992l-4.992 4-16 16-11.008 8.992L76 608l-28 23.008L392.992 976l23.008-28 226.016-290.016 0.96 1.024 32-32h1.024l0.992-1.024c36.48-41.12 36.768-104.224-1.984-142.976l-44-44 320-320z m-434.976 314.016c9.856-0.256 20.736 3.104 28.992 9.984 0.352 0.256 0.64 0.768 0.992 0.992l130.016 130.016c12 12 13.12 37.504 0 54.016-0.512 0.608-0.512 1.344-1.024 1.984l-9.984 8.992-185.024-184.992 11.008-11.008c6.144-6.112 15.136-9.728 24.992-9.984zM384.96 448.96l190.016 190.016-188 240-46.016-46.016 68.992-72-45.984-44-68 71.008-42.016-42.016 124-124.992L332.992 576 208 700l-63.008-63.008z" p-id="1584" fill="#ffffff"></path></svg>